<svg width="804" height="768" className="w-full h-full" fill="none" xmlns="http://www.w3.org/2000/svg">
<rect width="804" height="768" fill="#3885C1"/>
<path d="M58.3699 413C55.0699 413 52.2949 411.875 50.0449 409.625C47.7949 407.375 46.6699 404.6 46.6699 401.3V248.975C46.6699 245.525 47.7949 242.75 50.0449 240.65C52.2949 238.4 55.0699 237.275 58.3699 237.275H160.07C163.52 237.275 166.295 238.325 168.395 240.425C170.495 242.375 171.545 245 171.545 248.3C171.545 251.45 170.495 254 168.395 255.95C166.295 257.9 163.52 258.875 160.07 258.875H70.0699V313.55H134.645C138.095 313.55 140.87 314.6 142.97 316.7C145.07 318.65 146.12 321.2 146.12 324.35C146.12 327.5 145.07 330.125 142.97 332.225C140.87 334.175 138.095 335.15 134.645 335.15H70.0699V391.4H160.07C163.52 391.4 166.295 392.375 168.395 394.325C170.495 396.275 171.545 398.825 171.545 401.975C171.545 405.275 170.495 407.975 168.395 410.075C166.295 412.025 163.52 413 160.07 413H58.3699ZM277.052 413C275.552 413 274.127 412.775 272.777 412.325C271.427 411.875 270.152 410.9 268.952 409.4L229.577 362.15L221.477 354.05L182.327 307.7C180.377 305.3 179.327 302.75 179.177 300.05C179.027 297.2 179.777 294.8 181.427 292.85C183.077 290.9 185.552 289.925 188.852 289.925C192.452 289.925 195.302 291.2 197.402 293.75L235.877 339.65L241.727 345.05L284.027 395.675C286.277 398.375 287.327 401.075 287.177 403.775C287.177 406.325 286.202 408.5 284.252 410.3C282.452 412.1 280.052 413 277.052 413ZM191.102 413C188.102 413 185.702 412.1 183.902 410.3C182.252 408.35 181.427 406.025 181.427 403.325C181.427 400.625 182.477 397.925 184.577 395.225L222.827 347.3L234.977 364.4L199.202 409.4C196.952 411.8 194.252 413 191.102 413ZM246.677 355.175L231.152 341.9L267.377 293.75C268.577 292.25 269.852 291.275 271.202 290.825C272.552 290.225 274.052 289.925 275.702 289.925C279.002 289.925 281.477 290.975 283.127 293.075C284.777 295.025 285.527 297.425 285.377 300.275C285.377 303.125 284.327 305.9 282.227 308.6L246.677 355.175ZM358.015 413.9C345.565 413.9 334.465 411.275 324.715 406.025C315.115 400.625 307.54 393.275 301.99 383.975C296.59 374.525 293.89 363.725 293.89 351.575C293.89 339.275 296.44 328.475 301.54 319.175C306.79 309.725 313.99 302.375 323.14 297.125C332.29 291.725 342.79 289.025 354.64 289.025C366.34 289.025 376.39 291.65 384.79 296.9C393.19 302 399.565 309.125 403.915 318.275C408.415 327.275 410.665 337.7 410.665 349.55C410.665 352.4 409.69 354.8 407.74 356.75C405.79 358.55 403.315 359.45 400.315 359.45H309.64V341.45H399.64L390.415 347.75C390.265 340.25 388.765 333.575 385.915 327.725C383.065 321.725 379.015 317 373.765 313.55C368.515 310.1 362.14 308.375 354.64 308.375C346.09 308.375 338.74 310.25 332.59 314C326.59 317.75 322.015 322.925 318.865 329.525C315.715 335.975 314.14 343.325 314.14 351.575C314.14 359.825 316.015 367.175 319.765 373.625C323.515 380.075 328.69 385.175 335.29 388.925C341.89 392.675 349.465 394.55 358.015 394.55C362.665 394.55 367.39 393.725 372.19 392.075C377.14 390.275 381.115 388.25 384.115 386C386.365 384.35 388.765 383.525 391.315 383.525C394.015 383.375 396.34 384.125 398.29 385.775C400.84 388.025 402.19 390.5 402.34 393.2C402.49 395.9 401.29 398.225 398.74 400.175C393.64 404.225 387.265 407.525 379.615 410.075C372.115 412.625 364.915 413.9 358.015 413.9ZM486.842 413.9C474.842 413.9 464.117 411.2 454.667 405.8C445.367 400.25 438.017 392.825 432.617 383.525C427.367 374.075 424.742 363.425 424.742 351.575C424.742 339.425 427.367 328.625 432.617 319.175C437.867 309.725 445.067 302.375 454.217 297.125C463.367 291.725 473.867 289.025 485.717 289.025C494.567 289.025 502.667 290.75 510.017 294.2C517.367 297.5 523.967 302.525 529.817 309.275C531.917 311.675 532.667 314.15 532.067 316.7C531.467 319.25 529.817 321.5 527.117 323.45C525.017 324.95 522.692 325.475 520.142 325.025C517.592 324.425 515.267 323.075 513.167 320.975C505.817 313.175 496.667 309.275 485.717 309.275C478.067 309.275 471.317 311.075 465.467 314.675C459.617 318.125 455.042 323 451.742 329.3C448.442 335.6 446.792 343.025 446.792 351.575C446.792 359.675 448.442 366.875 451.742 373.175C455.192 379.475 459.917 384.5 465.917 388.25C471.917 391.85 478.892 393.65 486.842 393.65C492.092 393.65 496.667 393.05 500.567 391.85C504.617 390.5 508.292 388.475 511.592 385.775C513.992 383.825 516.467 382.775 519.017 382.625C521.567 382.325 523.817 383 525.767 384.65C528.317 386.75 529.742 389.15 530.042 391.85C530.342 394.4 529.442 396.725 527.342 398.825C516.542 408.875 503.042 413.9 486.842 413.9ZM574.949 413C572.099 413 569.549 411.95 567.299 409.85C565.049 407.75 563.924 404.975 563.924 401.525V290.6C563.924 279.8 566.024 270.425 570.224 262.475C574.574 254.525 580.574 248.375 588.224 244.025C595.874 239.525 604.724 237.275 614.774 237.275C618.074 237.275 620.774 238.25 622.874 240.2C625.124 242.15 626.249 244.625 626.249 247.625C626.249 250.475 625.124 252.95 622.874 255.05C620.774 257 618.074 257.975 614.774 257.975C609.224 257.975 604.349 259.25 600.149 261.8C595.949 264.35 592.649 267.875 590.249 272.375C587.999 276.875 586.874 282.2 586.874 288.35V401.525C586.874 404.975 585.824 407.75 583.724 409.85C581.624 411.95 578.699 413 574.949 413ZM554.249 313.775C551.099 313.775 548.549 312.875 546.599 311.075C544.649 309.275 543.674 307.025 543.674 304.325C543.674 301.325 544.649 298.925 546.599 297.125C548.549 295.325 551.099 294.425 554.249 294.425H609.824C612.974 294.425 615.524 295.325 617.474 297.125C619.424 298.925 620.399 301.325 620.399 304.325C620.399 307.025 619.424 309.275 617.474 311.075C615.524 312.875 612.974 313.775 609.824 313.775H554.249ZM661.841 467C660.341 467 658.541 466.55 656.441 465.65C649.841 462.65 648.041 457.925 651.041 451.475L719.666 296.45C722.666 290.15 727.391 288.35 733.841 291.05C740.591 293.9 742.466 298.625 739.466 305.225L670.616 460.025C668.816 464.675 665.891 467 661.841 467ZM688.391 408.05C685.541 409.25 682.841 409.4 680.291 408.5C677.891 407.45 675.941 405.5 674.441 402.65L622.916 304.775C621.416 301.925 621.191 299.225 622.241 296.675C623.441 293.975 625.466 292.025 628.316 290.825C631.166 289.625 633.866 289.55 636.416 290.6C638.966 291.5 640.916 293.375 642.266 296.225L691.541 394.1C693.041 396.95 693.566 399.725 693.116 402.425C692.816 404.975 691.241 406.85 688.391 408.05Z" fill="white"/>
</svg>
